<?xml version="1.0" encoding="UTF-8" standalone="no"?>
<!-- Created with Inkscape (http://www.inkscape.org/) -->

<svg
   width="48"
   height="48"
   viewBox="0 0 12.7 12.7"
   version="1.1"
   id="svg5"
   inkscape:version="1.2.2 (732a01da63, 2022-12-09)"
   sodipodi:docname="LOGO.svg"
   inkscape:export-filename="LOGO.png"
   inkscape:export-xdpi="96"
   inkscape:export-ydpi="96"
   xmlns:inkscape="http://www.inkscape.org/namespaces/inkscape"
   xmlns:sodipodi="http://sodipodi.sourceforge.net/DTD/sodipodi-0.dtd"
   xmlns:xlink="http://www.w3.org/1999/xlink"
   xmlns="http://www.w3.org/2000/svg"
   xmlns:svg="http://www.w3.org/2000/svg">
  <sodipodi:namedview
     id="namedview7"
     pagecolor="#ffffff"
     bordercolor="#000000"
     borderopacity="0.25"
     inkscape:showpageshadow="2"
     inkscape:pageopacity="0.0"
     inkscape:pagecheckerboard="0"
     inkscape:deskcolor="#d1d1d1"
     inkscape:document-units="mm"
     showgrid="false"
     inkscape:zoom="10.099009"
     inkscape:cx="17.328433"
     inkscape:cy="14.951962"
     inkscape:window-width="2560"
     inkscape:window-height="1369"
     inkscape:window-x="1912"
     inkscape:window-y="-8"
     inkscape:window-maximized="1"
     inkscape:current-layer="layer1" />
  <defs
     id="defs2">
    <linearGradient
       inkscape:collect="always"
       id="linearGradient481">
      <stop
         style="stop-color:#b008ff;stop-opacity:1;"
         offset="0"
         id="stop477" />
      <stop
         style="stop-color:#00b7ff;stop-opacity:1;"
         offset="1"
         id="stop479" />
    </linearGradient>
    <linearGradient
       inkscape:collect="always"
       xlink:href="#linearGradient481"
       id="linearGradient483"
       x1="3.563056"
       y1="3.143873"
       x2="10.060393"
       y2="10.034195"
       gradientUnits="userSpaceOnUse" />
    <linearGradient
       inkscape:collect="always"
       xlink:href="#linearGradient481"
       id="linearGradient2020"
       gradientUnits="userSpaceOnUse"
       x1="3.563056"
       y1="3.143873"
       x2="10.060393"
       y2="10.034195"
       gradientTransform="matrix(0.66251299,0,0,0.66251299,2.1430426,2.1430424)" />
  </defs>
  <g
     inkscape:label="Layer 1"
     inkscape:groupmode="layer"
     id="layer1">
    <path
       id="path176"
       style="fill:url(#linearGradient483);stroke-width:0.380695;fill-opacity:1"
       d="M 6.35 1.1100098 A 5.2397881 5.2397881 0 0 0 1.1100098 6.35 A 5.2397881 5.2397881 0 0 0 6.35 11.58999 A 5.2397881 5.2397881 0 0 0 11.58999 6.35 A 5.2397881 5.2397881 0 0 0 6.35 1.1100098 z M 6.35 2.0928955 A 4.257328 4.257328 0 0 1 10.607104 6.35 A 4.257328 4.257328 0 0 1 6.35 10.607104 A 4.257328 4.257328 0 0 1 2.0928955 6.35 A 4.257328 4.257328 0 0 1 6.35 2.0928955 z " />
    <path
       id="path176-2"
       style="fill:url(#linearGradient2020);fill-opacity:1;stroke-width:0.252216"
       d="M 6.3500004,2.8784384 A 3.4714277,3.4714277 0 0 0 2.8784386,6.35 3.4714277,3.4714277 0 0 0 6.3500004,9.8215615 3.4714277,3.4714277 0 0 0 9.8215614,6.35 3.4714277,3.4714277 0 0 0 6.3500004,2.8784384 Z m 0,0.6511745 A 2.8205352,2.8205352 0 0 1 9.170387,6.35 2.8205352,2.8205352 0 0 1 6.3500004,9.1703868 2.8205352,2.8205352 0 0 1 3.5296132,6.35 2.8205352,2.8205352 0 0 1 6.3500004,3.5296129 Z" />
  </g>
</svg>
